<?xml version="1.0" encoding="UTF-8"?>
<svg id="_レイヤー_2" data-name="レイヤー 2" xmlns="http://www.w3.org/2000/svg" viewBox="0 0 55 55">
  <defs>
    <style>
      .cls-1 {
        fill: #00a0e9;
      }

      .cls-1, .cls-2 {
        stroke-width: 0px;
      }

      .cls-2 {
        fill: none;
      }
    </style>
  </defs>
  <g id="_レイヤー_3" data-name="レイヤー 3">
    <g>
      <path class="cls-1" d="M26.9,54.35c-7.58,0-13.3-3.01-17.36-7.56l5.65-7c2.99,2.87,7.12,4.76,11.7,4.76s7.91-2.52,7.91-6.79c0-4.62-3.26-6.16-9.11-6.16h-2.99v-9.1h4.19c4.46,0,6.72-1.47,6.72-5.95,0-3.15-3.06-5.18-6.72-5.18-4.19,0-6.92.7-9.71,3.22l-4.99-7.35C17.19,3.04,21.51,1.57,27.9,1.57c8.11,0,16.36,5.32,16.36,13.72,0,5.11-2.53,9.17-6.92,10.92,5.05,1.47,8.11,5.95,8.11,11.55,0,9.66-7.12,16.59-18.55,16.59Z"/>
      <rect class="cls-2" width="55" height="55"/>
    </g>
  </g>
</svg>