<?xml version="1.0" encoding="UTF-8"?><svg id="_レイヤー_2" xmlns="http://www.w3.org/2000/svg" viewBox="0 0 170 203.58"><defs><style>.cls-1,.cls-2{stroke-width:0px;}.cls-2{fill:#0b318f;}</style></defs><g id="_レイヤー_3"><path class="cls-2" d="m21.09,122.63l-1.5-4.91c1.33-.49,2.58-.7,3.74-.63s2.23.42,3.21,1.03,1.92,1.6,2.82,2.95c1.1,1.64,1.76,3.14,1.98,4.5.22,1.36-.02,2.82-.71,4.38-.7,1.56-1.98,2.97-3.85,4.22-2.5,1.67-4.86,2.29-7.09,1.86s-4.16-1.86-5.79-4.29c-1.27-1.9-1.89-3.65-1.85-5.26s.68-3.2,1.92-4.8l3.67,3.5c-.36.45-.6.83-.71,1.13-.18.5-.24,1-.18,1.51.06.51.25.99.56,1.46.71,1.06,1.67,1.58,2.9,1.58.92,0,2.05-.45,3.4-1.35,1.67-1.12,2.65-2.14,2.93-3.07s.11-1.84-.5-2.76c-.6-.89-1.3-1.4-2.11-1.52-.81-.12-1.76.03-2.85.47Z"/><path class="cls-2" d="m6.52,118.33l-1.67-5.36,6.07-1.89-1.82-5.86-6.07,1.89-1.67-5.38,17.35-5.39,1.67,5.38-7.02,2.18,1.82,5.86,7.02-2.18,1.67,5.36-17.35,5.39Z"/><path class="cls-2" d="m.09,82.28l-.09-5.6,10.82-.18c1.07-.02,2.09.13,3.05.45.96.32,1.8.83,2.53,1.53.72.7,1.24,1.44,1.54,2.22.42,1.08.65,2.39.67,3.92.01.88-.03,1.85-.14,2.9-.11,1.05-.34,1.92-.69,2.63-.36.71-.87,1.36-1.53,1.95-.67.59-1.36,1-2.07,1.23-1.15.37-2.17.56-3.06.57l-10.82.18-.09-5.6,11.08-.18c.99-.02,1.76-.3,2.31-.86.55-.56.81-1.32.8-2.3-.02-.97-.3-1.72-.86-2.26-.56-.54-1.34-.8-2.35-.79l-11.08.18Z"/><path class="cls-2" d="m1.31,68.69l2.96-10.08c.49-1.68,1.29-2.85,2.38-3.5,1.1-.66,2.26-.8,3.49-.44,1.03.3,1.82.88,2.37,1.74.37.57.57,1.31.61,2.22.67-1.16,1.46-1.93,2.36-2.31.91-.38,1.91-.4,3.02-.07.9.27,1.65.71,2.25,1.35.6.63,1,1.37,1.21,2.23.13.53.12,1.27-.03,2.21-.2,1.26-.35,2.09-.47,2.48l-2.73,9.3-17.43-5.11Zm8.43-3.43l.69-2.34c.25-.84.27-1.47.08-1.88-.19-.41-.56-.7-1.11-.86-.51-.15-.95-.1-1.33.14-.38.25-.69.78-.93,1.59l-.7,2.38,3.3.97Zm6.85,2.01l.81-2.75c.27-.93.3-1.63.08-2.11-.22-.48-.6-.8-1.16-.96-.52-.15-.98-.08-1.41.2-.42.28-.77.9-1.05,1.84l-.8,2.73,3.53,1.04Z"/><path class="cls-2" d="m14.96,36.91l3-4.73,9.14,5.8c.91.57,1.67,1.26,2.3,2.05.63.79,1.05,1.68,1.27,2.67.22.99.24,1.89.07,2.7-.24,1.14-.77,2.35-1.59,3.64-.47.75-1.04,1.53-1.71,2.34-.66.82-1.34,1.42-2.03,1.82s-1.47.66-2.35.79c-.88.13-1.69.09-2.41-.11-1.16-.33-2.12-.73-2.87-1.21l-9.14-5.8,3-4.73,9.36,5.93c.84.53,1.64.71,2.4.55.76-.17,1.41-.66,1.93-1.48.52-.82.69-1.6.52-2.36-.17-.76-.68-1.41-1.53-1.95l-9.36-5.93Z"/><path class="cls-2" d="m30.55,19.36l6.88-4.72c1.36-.93,2.58-1.5,3.66-1.7,1.09-.2,2.14-.15,3.16.16,1.02.31,1.96.84,2.83,1.59.87.74,1.66,1.63,2.36,2.65,1.1,1.6,1.77,2.97,2.01,4.1.24,1.13.24,2.22,0,3.26-.24,1.04-.66,1.91-1.27,2.62-.83.97-1.65,1.74-2.48,2.3l-6.88,4.72-10.27-14.98Zm6.96.22l5.61,8.18,1.13-.78c.97-.66,1.58-1.24,1.84-1.74.26-.49.32-1.09.19-1.78-.14-.69-.61-1.64-1.44-2.84-1.09-1.59-2.09-2.5-3.01-2.73-.92-.23-1.98.07-3.18.89l-1.15.79Z"/><path class="cls-2" d="m64.93,18.07l-6.01,2.11.16,3.12-5.41,1.9.42-19.4,5.78-2.03,12.46,14.88-5.55,1.95-1.85-2.53Zm-2.4-3.32l-4.05-5.5.29,6.82,3.76-1.32Z"/><path class="cls-2" d="m71.3,1.09l5.58-.72,2.31,18.02-5.58.72-2.31-18.02Z"/><path class="cls-2" d="m83.13,0l5.62.09-.3,18.16-5.62-.09.3-18.16Z"/><path class="cls-2" d="m105.09,13.43l4.48,2.52c-.62,1.27-1.38,2.29-2.28,3.03s-1.91,1.24-3.04,1.47c-1.13.23-2.49.17-4.08-.18-1.93-.43-3.44-1.06-4.54-1.89s-1.93-2.05-2.5-3.66c-.57-1.61-.61-3.51-.12-5.71.65-2.93,1.94-5.01,3.85-6.24,1.91-1.23,4.29-1.52,7.15-.89,2.23.5,3.89,1.34,4.96,2.53,1.08,1.19,1.72,2.79,1.92,4.79h-5.08c-.05-.58-.14-1.01-.27-1.31-.21-.49-.52-.89-.91-1.22-.39-.32-.86-.55-1.41-.67-1.24-.28-2.3.01-3.19.86-.67.63-1.17,1.74-1.53,3.32-.44,1.97-.44,3.38,0,4.24.43.86,1.19,1.41,2.27,1.65,1.05.23,1.91.12,2.57-.35.67-.47,1.25-1.24,1.74-2.3Z"/><path class="cls-2" d="m118.62,6.51l4.9,2.73-3.1,5.55,5.36,2.99,3.1-5.55,4.92,2.75-8.85,15.86-4.92-2.75,3.58-6.42-5.36-2.99-3.58,6.42-4.9-2.73,8.85-15.86Z"/><path class="cls-2" d="m139.14,19.55l4.21,3.74-12.06,13.58-4.21-3.74,12.06-13.58Z"/><path class="cls-2" d="m149.21,49.67l3.3-1.84,4.22,7.57-6.76,3.77c-1.8-.9-3.19-1.81-4.16-2.72-.98-.92-1.89-2.14-2.75-3.67-1.05-1.88-1.59-3.6-1.6-5.14s.42-3,1.33-4.36c.91-1.36,2.18-2.5,3.83-3.42,1.73-.97,3.44-1.45,5.12-1.45s3.23.5,4.67,1.51c1.11.79,2.17,2.09,3.19,3.91.98,1.75,1.55,3.15,1.72,4.2.17,1.05.08,2.04-.27,2.99s-.95,1.85-1.82,2.71l-3.48-4.26c.49-.53.76-1.11.82-1.76s-.11-1.32-.52-2.05c-.6-1.08-1.45-1.72-2.55-1.95-1.1-.22-2.46.12-4.08,1.02-1.72.96-2.76,1.96-3.14,3.02s-.24,2.16.4,3.32c.31.55.68,1.03,1.11,1.44.44.41,1.02.83,1.77,1.26l1.49-.83-1.83-3.28Z"/><path class="cls-2" d="m148.35,62.64l17.73-3.95,2.03,9.13c.38,1.69.52,3.02.43,3.98-.09.96-.47,1.8-1.13,2.52-.66.72-1.56,1.21-2.69,1.46-.98.22-1.88.2-2.69-.06-.81-.26-1.51-.71-2.12-1.34-.39-.41-.76-.99-1.13-1.77-.07.7-.18,1.23-.34,1.57-.1.23-.35.6-.74,1.08-.39.49-.7.83-.93,1.01l-4.55,3.8-1.38-6.19,4.77-4.13c.62-.53,1-.96,1.15-1.3.19-.46.22-.93.11-1.43l-.11-.48-7.2,1.6-1.22-5.5Zm11.77,3.16l.51,2.31c.06.25.24.72.57,1.4.15.35.4.6.75.77.35.16.72.2,1.1.12.57-.13.97-.41,1.2-.84s.23-1.15,0-2.15l-.54-2.41-3.6.8Z"/><path class="cls-2" d="m161.17,80.22c2.96.18,5.21,1.15,6.76,2.9,1.55,1.75,2.23,4.1,2.05,7.04-.19,3.02-1.14,5.29-2.86,6.82s-4.04,2.21-6.96,2.03c-2.12-.13-3.83-.6-5.15-1.39-1.31-.8-2.3-1.89-2.97-3.29s-.94-3.1-.82-5.11c.13-2.04.56-3.72,1.29-5.02.73-1.3,1.83-2.32,3.29-3.07s3.25-1.05,5.37-.92Zm-.37,5.6c-1.83-.11-3.17.15-4.01.78-.84.63-1.3,1.53-1.37,2.7-.07,1.2.26,2.16,1,2.87.74.71,2.13,1.12,4.16,1.25,1.71.11,2.97-.16,3.8-.8.83-.64,1.28-1.55,1.35-2.73.07-1.13-.27-2.06-1.03-2.79-.76-.73-2.06-1.16-3.91-1.27Z"/><path class="cls-2" d="m163.26,117.74l-1.98,5.24-10.12-3.83c-1-.38-1.89-.89-2.67-1.55-.77-.65-1.37-1.44-1.78-2.36-.41-.92-.62-1.8-.61-2.64,0-1.16.28-2.46.82-3.89.31-.83.71-1.71,1.2-2.64.49-.93,1.02-1.66,1.62-2.19.59-.53,1.31-.94,2.15-1.25.84-.31,1.63-.43,2.38-.38,1.2.08,2.22.28,3.06.6l10.12,3.83-1.98,5.24-10.36-3.92c-.93-.35-1.75-.37-2.46-.05s-1.25.93-1.59,1.84c-.34.9-.35,1.71-.03,2.42.32.71.95,1.24,1.89,1.6l10.36,3.92Z"/><path class="cls-2" d="m157.45,129.58l-5.57,7.48c-1.21,1.63-2.51,2.56-3.89,2.8-1.38.23-2.78-.18-4.22-1.25-1.47-1.09-2.29-2.39-2.46-3.89-.17-1.5.42-3.16,1.77-4.98l1.83-2.47-5.41-4.02,3.37-4.52,14.57,10.84Zm-9.58-.1l-.82,1.1c-.65.87-.95,1.59-.91,2.17.04.58.29,1.04.77,1.39.46.34.96.48,1.5.41.54-.07,1.13-.52,1.76-1.36l.95-1.28-3.25-2.42Z"/><path class="cls-2" d="m146.13,84.88c0,33.77-27.38,61.15-61.15,61.15s-61.15-27.38-61.15-61.15,27.38-61.15,61.15-61.15,61.15,27.38,61.15,61.15Zm-11.07,0c0-27.61-22.47-50.08-50.08-50.08s-50.08,22.47-50.08,50.08,22.47,50.08,50.08,50.08,50.08-22.47,50.08-50.08Z"/><path class="cls-2" d="m133.61,104.28c-2.45-4.5-4.91-6.27-7.98-6.27s-68.12,0-68.12,0c-4.7,4.7-11.15,5.73-13.91-1.64-4.09-10.91-6.95-27.48-6.95-27.48l1.02-6.14c2.45,4.5,7.57,9,10.64,9h68.12c4.7-4.7,9.41-5.52,12.68,1.64,3.27,7.16,6.75,16.77,6.75,16.77l-2.25,14.11Z"/><path class="cls-1" d="m30.05,175.74c0,.21-.07.39-.25.46-1.16.42-2.88.63-4.85.63-6.5,0-12.05-3.83-12.05-11.84,0-7.06,4.92-11.95,12.58-11.95,2.28,0,3.69.21,4.57.6.14.07.21.18.21.39v3.34c0,.28-.14.28-.28.21-1.12-.53-2.74-.77-4.57-.77-4.95,0-8.12,3.16-8.12,8.08,0,6.08,4.5,8.15,8.19,8.15,1.72,0,3.02-.14,4.32-.6.14-.07.25-.03.25.18v3.13Z"/><path class="cls-1" d="m37.53,176.23c0,.18-.03.25-.25.25h-3.72c-.21,0-.28-.11-.28-.28v-24.49c0-.14.07-.25.28-.25h3.72c.21,0,.25.07.25.25v8.71c1.34-.98,2.81-1.62,4.81-1.62,2.67,0,5.87,1.33,5.87,6.96v10.4c0,.25-.11.32-.28.32h-3.65c-.21,0-.32-.11-.32-.32v-9.98c0-2.35-1.02-3.69-3.06-3.69-1.3,0-2.46.42-3.37,1.23v12.51Z"/><path class="cls-1" d="m65.68,172.89c0,.77,0,1.48.07,2.21,0,.07,0,.11-.07.14-2.88,1.23-4.92,1.58-7.31,1.58-3.83,0-6.89-1.79-6.89-5.76,0-3.72,3.34-5.59,7.9-5.59,1.05,0,1.86.03,2.18.07v-.42c0-.81-.46-2.63-3.55-2.63-1.76,0-3.3.35-4.6.98-.11.03-.28,0-.28-.21v-3.06c0-.18.03-.25.21-.35,1.51-.7,3.44-1.05,5.34-1.05,4.88,0,6.99,3.06,6.99,6.96v7.13Zm-4.11-4.15c-.53-.07-1.12-.11-1.93-.11-2.78,0-4,.91-4,2.42,0,1.3.91,2.42,3.44,2.42.91,0,1.72-.11,2.49-.42v-4.32Z"/><path class="cls-1" d="m70.1,151.74c0-.18.11-.28.32-.28h3.62c.21,0,.32.11.32.28v20.17c0,1.09.39,1.44,1.23,1.44.28,0,.35,0,.67-.04.11-.03.14.04.14.21v2.63c0,.25-.03.28-.21.39-.39.18-1.02.28-2,.28-2.25,0-4.08-.84-4.08-4.53v-20.55Z"/><path class="cls-1" d="m79.41,151.74c0-.18.11-.28.32-.28h3.62c.21,0,.32.11.32.28v20.17c0,1.09.39,1.44,1.23,1.44.28,0,.35,0,.67-.04.11-.03.14.04.14.21v2.63c0,.25-.03.28-.21.39-.39.18-1.02.28-2,.28-2.25,0-4.08-.84-4.08-4.53v-20.55Z"/><path class="cls-1" d="m91.92,168.78c.11,2.46,1.72,4.43,5.31,4.43,1.58,0,3.02-.28,4.36-.84.11-.07.21-.03.21.14v2.92c0,.21-.07.32-.21.39-1.33.63-2.88,1.02-5.27,1.02-6.39,0-8.68-4.5-8.68-8.82,0-4.88,2.95-9.2,8.26-9.2s7.2,4.08,7.2,7.41c0,.98-.03,1.79-.14,2.18-.03.14-.11.21-.28.25-.49.11-1.9.14-3.62.14h-7.13Zm5.23-3.02c1.33,0,1.79,0,1.93-.03v-.28c0-1.02-.7-3.27-3.37-3.27-2.42,0-3.51,1.86-3.79,3.58h5.23Z"/><path class="cls-1" d="m106.36,163.2c0-1.19-.07-3.09-.14-3.79,0-.18.03-.25.25-.25h3.2c.25,0,.35.07.42.25.11.32.18.77.25,1.33,1.51-1.27,3.2-1.93,5.09-1.93,2.64,0,5.87,1.33,5.87,6.96v10.4c0,.25-.11.32-.28.32h-3.65c-.21,0-.32-.11-.32-.32v-10.01c0-2.32-.98-3.65-3.02-3.65-1.4,0-2.56.53-3.41,1.44v12.26c0,.18-.11.28-.28.28h-3.69c-.21,0-.28-.11-.28-.28v-13Z"/><path class="cls-1" d="m134.04,172.79c4.81.25,6.89,2.14,6.89,5.02,0,3.58-3.51,6.46-8.99,6.46s-8.22-2.85-8.22-5.41c0-1.12.95-2.56,3.27-4.57-.53-.77-.77-1.69-.74-2.64,0-.81.21-1.58.63-2.28-1.44-.91-2.42-2.42-2.42-4.57,0-3.37,2.57-6.01,6.99-6.01,1.23,0,2.35.11,3.09.25.32.07.6.11.81.11h4.88c.18,0,.21.07.21.21v2.88c0,.14-.03.21-.21.21-.67,0-1.93-.07-2.71-.18.39.56.77,1.41.77,2.67,0,3.76-2.99,5.66-6.78,5.66-.46,0-.95-.03-1.41-.1-.11.35-.18.7-.11,1.05.03.39.18.74.46,1.09l3.58.14Zm-4.74,3.41c-1.02.7-1.69,1.83-1.69,2.35,0,1.23,1.69,2.6,4.6,2.6,3.34,0,4.81-1.37,4.81-2.7,0-1.55-1.76-1.97-3.9-2.07l-3.83-.18Zm-.7-11.45c0,1.62.98,2.81,2.85,2.81,1.76,0,2.81-1.02,2.81-2.74s-.84-2.95-2.81-2.95c-1.76,0-2.85,1.09-2.85,2.88Z"/><path class="cls-1" d="m146.1,168.78c.11,2.46,1.72,4.43,5.31,4.43,1.58,0,3.02-.28,4.36-.84.11-.07.21-.03.21.14v2.92c0,.21-.07.32-.21.39-1.33.63-2.88,1.02-5.27,1.02-6.39,0-8.68-4.5-8.68-8.82,0-4.88,2.95-9.2,8.26-9.2s7.2,4.08,7.2,7.41c0,.98-.03,1.79-.14,2.18-.03.14-.11.21-.28.25-.49.11-1.9.14-3.62.14h-7.13Zm5.23-3.02c1.33,0,1.79,0,1.93-.03v-.28c0-1.02-.7-3.27-3.37-3.27-2.42,0-3.51,1.86-3.79,3.58h5.23Z"/><path class="cls-1" d="m27.27,189.87h6.16v9.13h-2.69v-.83h-3.48v5.37h-2.69v-5.37h-3.3v.91h-2.56v-9.22h5.87v-3l3.25.18c-.02.19-.18.32-.56.39v2.44Zm-5.99,5.8h3.3v-3.28h-3.3v3.28Zm5.99,0h3.48v-3.28h-3.48v3.28Z"/><path class="cls-1" d="m41.69,190.69l2.07.56c-.07.16-.23.23-.49.23-.19.56-.47,1.26-.76,1.86h1.93v2.3h-9.1v-2.3h1.79c-.05-.62-.25-1.53-.49-2.2l2.04-.42c.3.68.54,1.62.61,2.25l-1.6.37h2.9l-.23-.07c.28-.72.62-1.77.77-2.58h-5.46v-2.2h3.06v-1.63l2.99.16c-.02.19-.16.32-.51.37v1.11h3.02v2.2h-2.55Zm-5.43,12.89v-6.99h7.5v6.92h-2.48v-.74h-2.67v.81h-2.35Zm5.02-4.79h-2.67v1.79h2.67v-1.79Zm9.13-11.03l1.6.58c-.02.14-.07.25-.18.33-.47,1.53-1.07,3.35-1.79,5.25,1.44,1.79,1.9,3,1.9,4.09,0,3.48-2.37,3.51-3.35,3.51-.18,0-.37,0-.54-.02-.02-.62-.28-1.58-.65-2.25v4.28h-2.49v-15.7h5.01l.51-.09Zm-3.02,2.48v8.87c.42.03.77.03,1.02.03.86,0,1.05-.39,1.05-1.25s-.49-1.84-1.95-3.55c.47-1.49.86-2.86,1.19-4.11h-1.32Z"/><path class="cls-1" d="m69.38,188.13v1.93h-2.69c.25.35.46.68.6.97l-1.76.67h1.97v4.81h-5.15v.7h4.3l.56-.04,1.44.18c-.02.19-.04.46-.09.67-.26,4.48-.58,4.88-4.32,4.81-.03-.74-.32-1.69-.68-2.32.61.07,1.19.07,1.49.07.62,0,.74-.23.88-1.27h-3.58v4.23h-2.49v-3.11c-1.44,1.28-3.23,2.34-5.04,2.99-.35-.6-1.07-1.53-1.6-2,1.65-.46,3.34-1.21,4.65-2.11h-1.02l-.09.3-2.56-.26c.42-1.33.91-3.28,1.21-4.9h4.44v-.7h-5.09v-1.98l-.21.21c-.47-.4-1.35-.98-1.93-1.28,1.11-.95,2.18-2.55,2.76-4l2.63.84c-.05.14-.23.23-.47.21-.05.12-.12.26-.19.39h3.57v1.58c.74-.84,1.37-1.97,1.76-3.02.9.26,1.79.53,2.69.81-.07.14-.25.23-.47.21-.05.14-.12.28-.19.42h4.69Zm-12.36,3.57c-.19-.49-.51-1.09-.84-1.63h-.02c-.4.6-.86,1.16-1.32,1.63h2.18Zm2.85,5.52v-.7h-2.32l-.16.7h2.48Zm-2.05-5.52h4.16c-.49-.4-1.28-.93-1.83-1.23.16-.12.3-.26.46-.4h-1.83c.21.35.39.68.49.97l-1.46.67Zm5.74-1.63c-.44.61-.9,1.18-1.39,1.63h2.84c-.23-.47-.61-1.09-1-1.63h-.46Zm1.44,4.39v-.7h-2.63v.7h2.63Z"/><path class="cls-1" d="m70.58,193.64h16.37v2.79h-16.37v-2.79Z"/><path class="cls-1" d="m101.1,191.52c-.07.16-.28.28-.44.37-2.14,6.15-4.81,9.13-9.2,11.35-.44-.6-1.23-1.51-2-2.05,3.99-1.84,6.36-4.3,7.73-8.29h-4.39c-.83,1.23-2.09,2.62-3.49,3.71-.49-.51-1.48-1.26-2.18-1.7,2.27-1.49,4.41-4.55,5.37-7.57l3.34.74c-.07.21-.32.33-.6.35-.26.56-.68,1.46-.95,1.98h4.21l.39-.18,2.21,1.3Zm-2.9-4.6c.75.56,1.69,1.55,2.2,2.16l-1.16,1.04c-.42-.6-1.51-1.7-2.12-2.21l1.09-.98Zm2.92-.44c.74.58,1.67,1.49,2.16,2.14l-1.18,1c-.37-.53-1.39-1.6-2.07-2.18l1.09-.97Z"/><path class="cls-1" d="m108.36,190.13c-.02.21-.18.39-.47.42-.07,5.18-.6,9.15-2.86,12.47-.61-.4-1.65-1-2.41-1.39,2.21-2.67,2.53-7.31,2.49-11.7l3.25.19Zm4.5,8.66c2.09-1.25,3.3-3.53,3.99-6.08.54.46,1.77,1.16,2.41,1.47-1.26,3.65-3.27,6.2-6.97,8.1-.11.19-.3.37-.46.47l-2-2.32.32-.42v-12.28l3.27.16c-.03.21-.18.4-.54.47v10.41Z"/><path class="cls-1" d="m120.83,193.63h14.66v2.67h-13.89c-.12.18-.37.3-.63.33l-.14-3Z"/><path class="cls-1" d="m137.47,189.41h10.89l.16-.11,2.32,1.62c-.09.11-.21.21-.35.28-1.65,6.57-4.58,9.61-9.96,11.75-.39-.67-1.18-1.67-1.72-2.23,4.6-1.72,7.57-4.67,8.38-8.73h-9.71v-2.58Zm13.49-2.83c1.04,0,1.88.84,1.88,1.88s-.84,1.88-1.88,1.88-1.88-.84-1.88-1.88.88-1.88,1.88-1.88Zm1.18,1.88c0-.65-.53-1.18-1.18-1.18s-1.18.53-1.18,1.18.53,1.18,1.18,1.18c.68,0,1.18-.56,1.18-1.18Z"/></g></svg>