<?xml version="1.0" encoding="UTF-8"?><svg id="_レイヤー_2" xmlns="http://www.w3.org/2000/svg" viewBox="0 0 50 50"><defs><style>.cls-1{fill:#00a0e9;}.cls-1,.cls-2{stroke-width:0px;}.cls-2{fill:#fff;}</style></defs><g id="_レイヤー_3"><circle class="cls-1" cx="25" cy="25" r="25"/><path class="cls-2" d="m30.98,34.48c-1.66,1.06-3.52,1.6-5.98,1.6-6.4,0-11.1-4.74-11.1-11.07s4.7-11.07,11.1-11.07,11.1,4.8,11.1,11.07c0,3.9-1.73,6.33-2.94,7.65l3.46,3.42h-4.03l-1.6-1.6Zm-.03-4.03c1.02-1.18,1.89-2.75,1.89-5.44,0-4.74-3.26-8.06-7.84-8.06s-7.84,3.33-7.84,8.06,3.26,8.06,7.84,8.06c1.6,0,2.75-.35,3.68-.83l-5.05-5.02h4.06l3.26,3.23Z"/></g></svg>