<?xml version="1.0" encoding="UTF-8"?><svg id="_レイヤー_2" xmlns="http://www.w3.org/2000/svg" viewBox="0 0 80 80"><defs><style>.cls-1{fill:#f6ab00;}.cls-1,.cls-2{stroke-width:0px;}.cls-2{fill:#fff;}</style></defs><g id="_レイヤー_3"><circle class="cls-1" cx="40" cy="40" r="40"/><path class="cls-2" d="m23.75,42.59c-.07,1.62-.53,2.85-1.37,3.68-.84.83-2.02,1.25-3.55,1.25-1.61,0-2.84-.53-3.7-1.59-.86-1.06-1.28-2.57-1.28-4.53v-2.39c0-1.95.44-3.46,1.33-4.52.89-1.06,2.12-1.59,3.69-1.59s2.73.43,3.53,1.3c.8.87,1.26,2.11,1.37,3.73h-2.88c-.03-1-.18-1.69-.46-2.08s-.8-.57-1.56-.57-1.31.27-1.63.81-.49,1.42-.51,2.65v2.69c0,1.41.16,2.38.47,2.91s.86.79,1.63.79,1.28-.18,1.56-.55c.29-.37.45-1.03.49-2h2.87Z"/><path class="cls-2" d="m28.39,44.94h5.04v2.38h-7.91v-14.22h2.87v11.84Z"/><path class="cls-2" d="m38.09,47.33h-2.87v-14.22h2.87v14.22Z"/><path class="cls-2" d="m50.14,42.59c-.07,1.62-.53,2.85-1.37,3.68-.84.83-2.02,1.25-3.55,1.25-1.61,0-2.84-.53-3.7-1.59-.86-1.06-1.28-2.57-1.28-4.53v-2.39c0-1.95.44-3.46,1.33-4.52.89-1.06,2.12-1.59,3.69-1.59s2.73.43,3.53,1.3c.8.87,1.26,2.11,1.37,3.73h-2.88c-.03-1-.18-1.69-.46-2.08s-.8-.57-1.56-.57-1.31.27-1.63.81-.49,1.42-.51,2.65v2.69c0,1.41.16,2.38.47,2.91s.86.79,1.63.79,1.28-.18,1.56-.55c.29-.37.45-1.03.49-2h2.87Z"/><path class="cls-2" d="m55.91,41.84l-1.13,1.43v4.06h-2.87v-14.22h2.87v6.2l.91-1.53,2.65-4.67h3.52l-4.07,6.25,4.14,7.97h-3.41l-2.6-5.49Z"/><path class="cls-2" d="m62.99,45.99c0-.44.14-.81.42-1.09s.64-.42,1.09-.42.8.14,1.08.42.42.65.42,1.09-.14.79-.42,1.07c-.28.28-.64.42-1.09.42s-.82-.14-1.1-.42c-.28-.28-.42-.64-.42-1.07Zm2.67-3.04h-2.29l-.32-9.84h2.94l-.32,9.84Z"/></g></svg>